# xmcd
#
# Track frame offsets:
#	150
#	16403
#	34713
#	49239
#	67736
#	82880
#	98671
#	113786
#
# Disc length: 1745 seconds
#
# Revision: 1
# Processed by: cddbd v1.5.2PL0 Copyright (c) Steve Scherf et al.
# Submitted via: audiograbber 1.83.01
#
DISCID=5506cf08
DTITLE=Paul Overstreet - Favorite Demos 1
DYEAR=2010
DGENRE=Country
TTITLE0=Country Life 
TTITLE1=Baby That's A Good Thing 
TTITLE2=One Thing Right
TTITLE3=Kennesaw Cove 
TTITLE4=This Ocean 
TTITLE5=Like A Rodeo
TTITLE6=Shut Up Honey Money
TTITLE7=Rednecks On A Bus 
EXTD=
EXTT0=
EXTT1=
EXTT2=
EXTT3=
EXTT4=
EXTT5=
EXTT6=
EXTT7=
PLAYORDER=
